<?xml version="1.0" encoding="UTF-8" standalone="no"?>
<svg
   xmlns:svg="http://www.w3.org/2000/svg"
   xmlns="http://www.w3.org/2000/svg"
   xmlns:sodipodi="http://sodipodi.sourceforge.net/DTD/sodipodi-0.dtd"
   xmlns:inkscape="http://www.inkscape.org/namespaces/inkscape"
   width="236.18471mm"
   height="90.663887mm"
   viewBox="0 0 236.1847 90.663887"
   version="1.1"
   id="svg1935"
   inkscape:version="1.1-dev (60faa23c, 2020-06-06)"
   sodipodi:docname="network_architecture.svg">
  <defs
     id="defs1931">
    <marker
       inkscape:stockid="Arrow2Mend"
       orient="auto"
       refY="0"
       refX="0"
       id="marker2571"
       style="overflow:visible"
       inkscape:isstock="true">
      <path
         id="path2569"
         style="fill:#000000;fill-opacity:1;fill-rule:evenodd;stroke:#000000;stroke-width:0.625;stroke-linejoin:round;stroke-opacity:1"
         d="M 8.7185878,4.0337352 -2.2072895,0.01601326 8.7185884,-4.0017078 c -1.7454984,2.3720609 -1.7354408,5.6174519 -6e-7,8.035443 z"
         transform="scale(-0.6)" />
    </marker>
    <marker
       inkscape:stockid="Arrow2Mend"
       orient="auto"
       refY="0"
       refX="0"
       id="marker2528"
       style="overflow:visible"
       inkscape:isstock="true">
      <path
         id="path2526"
         style="fill:#000000;fill-opacity:1;fill-rule:evenodd;stroke:#000000;stroke-width:0.625;stroke-linejoin:round;stroke-opacity:1"
         d="M 8.7185878,4.0337352 -2.2072895,0.01601326 8.7185884,-4.0017078 c -1.7454984,2.3720609 -1.7354408,5.6174519 -6e-7,8.035443 z"
         transform="scale(-0.6)" />
    </marker>
    <marker
       inkscape:stockid="Arrow2Mend"
       orient="auto"
       refY="0"
       refX="0"
       id="marker2518"
       style="overflow:visible"
       inkscape:isstock="true">
      <path
         id="path2516"
         style="fill:#000000;fill-opacity:1;fill-rule:evenodd;stroke:#000000;stroke-width:0.625;stroke-linejoin:round;stroke-opacity:1"
         d="M 8.7185878,4.0337352 -2.2072895,0.01601326 8.7185884,-4.0017078 c -1.7454984,2.3720609 -1.7354408,5.6174519 -6e-7,8.035443 z"
         transform="scale(-0.6)" />
    </marker>
    <marker
       inkscape:stockid="Arrow2Mend"
       orient="auto"
       refY="0"
       refX="0"
       id="marker2508"
       style="overflow:visible"
       inkscape:isstock="true">
      <path
         id="path2506"
         style="fill:#000000;fill-opacity:1;fill-rule:evenodd;stroke:#000000;stroke-width:0.625;stroke-linejoin:round;stroke-opacity:1"
         d="M 8.7185878,4.0337352 -2.2072895,0.01601326 8.7185884,-4.0017078 c -1.7454984,2.3720609 -1.7354408,5.6174519 -6e-7,8.035443 z"
         transform="scale(-0.6)" />
    </marker>
    <marker
       inkscape:stockid="Arrow2Mend"
       orient="auto"
       refY="0"
       refX="0"
       id="marker2498"
       style="overflow:visible"
       inkscape:isstock="true">
      <path
         id="path2496"
         style="fill:#000000;fill-opacity:1;fill-rule:evenodd;stroke:#000000;stroke-width:0.625;stroke-linejoin:round;stroke-opacity:1"
         d="M 8.7185878,4.0337352 -2.2072895,0.01601326 8.7185884,-4.0017078 c -1.7454984,2.3720609 -1.7354408,5.6174519 -6e-7,8.035443 z"
         transform="scale(-0.6)" />
    </marker>
    <marker
       inkscape:stockid="Arrow2Mend"
       orient="auto"
       refY="0"
       refX="0"
       id="marker2488"
       style="overflow:visible"
       inkscape:isstock="true">
      <path
         id="path2486"
         style="fill:#000000;fill-opacity:1;fill-rule:evenodd;stroke:#000000;stroke-width:0.625;stroke-linejoin:round;stroke-opacity:1"
         d="M 8.7185878,4.0337352 -2.2072895,0.01601326 8.7185884,-4.0017078 c -1.7454984,2.3720609 -1.7354408,5.6174519 -6e-7,8.035443 z"
         transform="scale(-0.6)" />
    </marker>
    <marker
       inkscape:stockid="Arrow2Mend"
       orient="auto"
       refY="0"
       refX="0"
       id="marker2478"
       style="overflow:visible"
       inkscape:isstock="true">
      <path
         id="path2476"
         style="fill:#000000;fill-opacity:1;fill-rule:evenodd;stroke:#000000;stroke-width:0.625;stroke-linejoin:round;stroke-opacity:1"
         d="M 8.7185878,4.0337352 -2.2072895,0.01601326 8.7185884,-4.0017078 c -1.7454984,2.3720609 -1.7354408,5.6174519 -6e-7,8.035443 z"
         transform="scale(-0.6)" />
    </marker>
    <marker
       inkscape:stockid="Arrow2Mend"
       orient="auto"
       refY="0"
       refX="0"
       id="marker2432"
       style="overflow:visible"
       inkscape:isstock="true">
      <path
         id="path2430"
         style="fill:#000000;fill-opacity:1;fill-rule:evenodd;stroke:#000000;stroke-width:0.625;stroke-linejoin:round;stroke-opacity:1"
         d="M 8.7185878,4.0337352 -2.2072895,0.01601326 8.7185884,-4.0017078 c -1.7454984,2.3720609 -1.7354408,5.6174519 -6e-7,8.035443 z"
         transform="scale(-0.6)" />
    </marker>
    <marker
       inkscape:isstock="true"
       style="overflow:visible"
       id="marker2298"
       refX="0"
       refY="0"
       orient="auto"
       inkscape:stockid="Arrow2Mend">
      <path
         transform="scale(-0.6)"
         d="M 8.7185878,4.0337352 -2.2072895,0.01601326 8.7185884,-4.0017078 c -1.7454984,2.3720609 -1.7354408,5.6174519 -6e-7,8.035443 z"
         style="fill:#000000;fill-opacity:1;fill-rule:evenodd;stroke:#000000;stroke-width:0.625;stroke-linejoin:round;stroke-opacity:1"
         id="path2296" />
    </marker>
    <marker
       inkscape:stockid="Arrow2Mend"
       orient="auto"
       refY="0"
       refX="0"
       id="marker2268"
       style="overflow:visible"
       inkscape:isstock="true"
       inkscape:collect="always">
      <path
         id="path2266"
         style="fill:#000000;fill-opacity:1;fill-rule:evenodd;stroke:#000000;stroke-width:0.625;stroke-linejoin:round;stroke-opacity:1"
         d="M 8.7185878,4.0337352 -2.2072895,0.01601326 8.7185884,-4.0017078 c -1.7454984,2.3720609 -1.7354408,5.6174519 -6e-7,8.035443 z"
         transform="scale(-0.6)" />
    </marker>
    <marker
       inkscape:isstock="true"
       style="overflow:visible"
       id="marker2196"
       refX="0"
       refY="0"
       orient="auto"
       inkscape:stockid="Arrow2Mend">
      <path
         transform="scale(-0.6)"
         d="M 8.7185878,4.0337352 -2.2072895,0.01601326 8.7185884,-4.0017078 c -1.7454984,2.3720609 -1.7354408,5.6174519 -6e-7,8.035443 z"
         style="fill:#000000;fill-opacity:1;fill-rule:evenodd;stroke:#000000;stroke-width:0.625;stroke-linejoin:round;stroke-opacity:1"
         id="path2194" />
    </marker>
    <marker
       inkscape:stockid="Arrow2Mend"
       orient="auto"
       refY="0"
       refX="0"
       id="marker2162"
       style="overflow:visible"
       inkscape:isstock="true"
       inkscape:collect="always">
      <path
         id="path2160"
         style="fill:#000000;fill-opacity:1;fill-rule:evenodd;stroke:#000000;stroke-width:0.625;stroke-linejoin:round;stroke-opacity:1"
         d="M 8.7185878,4.0337352 -2.2072895,0.01601326 8.7185884,-4.0017078 c -1.7454984,2.3720609 -1.7354408,5.6174519 -6e-7,8.035443 z"
         transform="scale(-0.6)" />
    </marker>
    <marker
       inkscape:collect="always"
       inkscape:isstock="true"
       style="overflow:visible"
       id="marker2132"
       refX="0"
       refY="0"
       orient="auto"
       inkscape:stockid="Arrow2Mend">
      <path
         transform="scale(-0.6)"
         d="M 8.7185878,4.0337352 -2.2072895,0.01601326 8.7185884,-4.0017078 c -1.7454984,2.3720609 -1.7354408,5.6174519 -6e-7,8.035443 z"
         style="fill:#000000;fill-opacity:1;fill-rule:evenodd;stroke:#000000;stroke-width:0.625;stroke-linejoin:round;stroke-opacity:1"
         id="path2130" />
    </marker>
    <marker
       inkscape:isstock="true"
       style="overflow:visible"
       id="marker2090"
       refX="0"
       refY="0"
       orient="auto"
       inkscape:stockid="Arrow2Mend"
       inkscape:collect="always">
      <path
         transform="scale(-0.6)"
         d="M 8.7185878,4.0337352 -2.2072895,0.01601326 8.7185884,-4.0017078 c -1.7454984,2.3720609 -1.7354408,5.6174519 -6e-7,8.035443 z"
         style="fill:#000000;fill-opacity:1;fill-rule:evenodd;stroke:#000000;stroke-width:0.625;stroke-linejoin:round;stroke-opacity:1"
         id="path2088" />
    </marker>
    <clipPath
       id="clip1">
      <path
         d="m 145,0.179688 h 19 V 87 h -19 z m 0,0"
         id="path1429" />
    </clipPath>
    <clipPath
       id="clip2">
      <path
         d="m 383,0.179688 h 19 V 87 h -19 z m 0,0"
         id="path1432" />
    </clipPath>
    <clipPath
       clipPathUnits="userSpaceOnUse"
       id="clipPath1995">
      <path
         d="m 0,0.18 h 402 v 87 H 0 Z"
         id="path1993" />
    </clipPath>
    <clipPath
       clipPathUnits="userSpaceOnUse"
       id="clipPath2273">
      <path
         d="M 0.335812,0.45 H 402.33581 v 87 H 0.335812 Z"
         id="path2271" />
    </clipPath>
    <clipPath
       clipPathUnits="userSpaceOnUse"
       id="clipPath2285">
      <path
         d="M 0.335812,0.630078 H 402.33581 v 86.81992 H 0.335812 Z"
         id="path2283" />
    </clipPath>
    <clipPath
       clipPathUnits="userSpaceOnUse"
       id="clipPath2442">
      <path
         d="M 0.335812,0.972 H 323.33581 v 31 H 0.335812 Z"
         id="path2440" />
    </clipPath>
    <clipPath
       clipPathUnits="userSpaceOnUse"
       id="clipPath2454">
      <path
         d="M 0.335812,1.152078 H 323.33581 v 30.81992 H 0.335812 Z"
         id="path2452" />
    </clipPath>
  </defs>
  <sodipodi:namedview
     inkscape:snap-global="false"
     id="base"
     pagecolor="#ffffff"
     bordercolor="#666666"
     borderopacity="1.0"
     inkscape:pageopacity="0.0"
     inkscape:pageshadow="2"
     inkscape:zoom="0.7"
     inkscape:cx="412.86703"
     inkscape:cy="267.99504"
     inkscape:document-units="mm"
     inkscape:current-layer="layer1"
     showgrid="true"
     inkscape:window-width="1252"
     inkscape:window-height="819"
     inkscape:window-x="52"
     inkscape:window-y="25"
     inkscape:window-maximized="0"
     showguides="false"
     fit-margin-top="0"
     fit-margin-left="0"
     fit-margin-right="0"
     fit-margin-bottom="0">
    <inkscape:grid
       type="xygrid"
       id="grid1994"
       originx="24.165278"
       originy="37.394446" />
    <sodipodi:guide
       position="149.84235,86.342369"
       orientation="1,0"
       id="guide2672" />
  </sodipodi:namedview>
  <g
     inkscape:label="Layer 1"
     inkscape:groupmode="layer"
     id="layer1"
     transform="translate(24.165276,37.394446)">
    <path
       id="path2400"
       d="m 45.508353,-21.166666 v 7.937499"
       style="fill:none;stroke:#000000;stroke-width:0.705556;stroke-linecap:butt;stroke-linejoin:miter;stroke-miterlimit:4;stroke-dasharray:none;stroke-opacity:1;marker-end:url(#marker2478)" />
    <path
       id="path2402"
       d="M 45.508353,-2.6458333 V 7.9374999"
       style="fill:none;stroke:#000000;stroke-width:0.705556;stroke-linecap:butt;stroke-linejoin:miter;stroke-miterlimit:4;stroke-dasharray:none;stroke-opacity:1;marker-end:url(#marker2488)" />
    <path
       style="fill:none;stroke:#000000;stroke-width:0.705556;stroke-linecap:butt;stroke-linejoin:miter;stroke-miterlimit:4;stroke-dasharray:none;stroke-opacity:1;marker-end:url(#marker2498)"
       d="m 71.966688,-21.166666 v 7.937499"
       id="path2410" />
    <path
       style="fill:none;stroke:#000000;stroke-width:0.705556;stroke-linecap:butt;stroke-linejoin:miter;stroke-miterlimit:4;stroke-dasharray:none;stroke-opacity:1;marker-end:url(#marker2508)"
       d="M 71.966688,-2.6458333 V 7.9374999"
       id="path2412" />
    <path
       id="path2420"
       d="m 97.895813,-27.516667 v 6.349997"
       style="fill:none;stroke:#000000;stroke-width:0.705556;stroke-linecap:butt;stroke-linejoin:miter;stroke-miterlimit:4;stroke-dasharray:none;stroke-opacity:1;marker-end:url(#marker2518)"
       sodipodi:nodetypes="cc" />
    <path
       id="path2422"
       d="m 98.424943,5.5562494 4e-5,5.2916666"
       style="fill:none;stroke:#000000;stroke-width:0.705556;stroke-linecap:butt;stroke-linejoin:miter;stroke-miterlimit:4;stroke-dasharray:none;stroke-opacity:1;marker-end:url(#marker2528)"
       sodipodi:nodetypes="cc" />
    <path
       style="fill:none;stroke:#000000;stroke-width:0.705556;stroke-linecap:butt;stroke-linejoin:miter;stroke-miterlimit:4;stroke-dasharray:none;stroke-opacity:1;marker-end:url(#marker2268)"
       d="m -15.875003,-5.2916667 -1e-6,31.7499997 H -4.4666667e-6"
       id="path2264"
       sodipodi:nodetypes="ccc" />
    <path
       id="path2128"
       d="m 95.25,26.458333 h 7.9375"
       style="fill:none;stroke:#000000;stroke-width:0.705556;stroke-linecap:butt;stroke-linejoin:miter;stroke-miterlimit:4;stroke-dasharray:none;stroke-opacity:1;marker-end:url(#marker2132)"
       sodipodi:nodetypes="cc" />
    <path
       sodipodi:nodetypes="cc"
       style="fill:none;stroke:#000000;stroke-width:0.705556;stroke-linecap:butt;stroke-linejoin:miter;stroke-miterlimit:4;stroke-dasharray:none;stroke-opacity:1;marker-end:url(#marker2162)"
       d="m 132.29167,26.458333 h 7.9375"
       id="path2158" />
    <path
       id="path2086"
       d="m -15.875003,-26.458334 v 11.906251"
       style="fill:none;stroke:#000000;stroke-width:0.705556;stroke-linecap:butt;stroke-linejoin:miter;stroke-miterlimit:4;stroke-dasharray:none;stroke-opacity:1;marker-end:url(#marker2090)"
       sodipodi:nodetypes="cc" />
    <rect
       style="fill:#d2d2ff;fill-opacity:1;stroke:#0000ff;stroke-width:0.705556;stroke-linecap:round;stroke-opacity:0.98"
       id="rect2016"
       width="15.875"
       height="10.583333"
       x="-23.812498"
       y="-37.041668"
       ry="0" />
    <text
       xml:space="preserve"
       style="font-size:5.64444px;line-height:1.25;font-family:sans-serif;stroke-width:0.264583"
       x="-21.166668"
       y="-29.633331"
       id="text1998"><tspan
         sodipodi:role="line"
         id="tspan1996"
         style="stroke-width:0.264583"
         x="-21.166668"
         y="-29.633331">q,q</tspan></text>
    <rect
       style="fill:#ffd2d2;stroke:#ff0000;stroke-width:0.705556;stroke-linecap:round;stroke-opacity:0.975708"
       id="rect2002"
       width="15.875"
       height="10.583333"
       x="-23.812498"
       y="-13.229171"
       ry="5.2916665" />
    <rect
       style="fill:#d2ffd2;fill-opacity:1;stroke:#008000;stroke-width:0.705556;stroke-linecap:round;stroke-opacity:0.98"
       id="rect2004"
       width="50.191597"
       height="21.701204"
       x="45.058403"
       y="15.340461"
       ry="5.2916665" />
    <rect
       style="fill:#d2ffd2;fill-opacity:1;stroke:#008000;stroke-width:0.705556;stroke-linecap:round;stroke-opacity:0.98"
       id="rect2006"
       width="52.703796"
       height="20.632128"
       x="140.2291"
       y="15.875"
       ry="5.2916665" />
    <rect
       ry="0"
       y="42.333336"
       x="200.55424"
       height="10.58333"
       width="11.112401"
       id="rect2018"
       style="fill:#d2d2ff;fill-opacity:1;stroke:#0000ff;stroke-width:0.705556;stroke-linecap:round;stroke-opacity:0.98" />
    <rect
       style="fill:#d2d2ff;fill-opacity:1;stroke:#0000ff;stroke-width:0.705556;stroke-linecap:round;stroke-opacity:0.98"
       id="rect2024"
       width="29.104156"
       height="10.583334"
       x="103.18752"
       y="21.166666"
       ry="0" />
    <text
       xml:space="preserve"
       style="font-size:4.23333px;line-height:1.25;font-family:sans-serif;stroke-width:0.264583"
       x="156.10414"
       y="21.695833"
       id="text2048"><tspan
         sodipodi:role="line"
         id="tspan2046"
         style="font-size:4.23333px;stroke-width:0.264583"
         x="156.10414"
         y="21.695833">autodiff</tspan></text>
    <g
       id="g2068">
      <text
         id="text2010"
         y="28.611256"
         x="106.28193"
         style="font-size:5.64444px;line-height:1.25;font-family:sans-serif;stroke-width:0.264583"
         xml:space="preserve"><tspan
           y="28.611256"
           x="106.28193"
           style="stroke-width:0.264583"
           id="tspan2008"
           sodipodi:role="line">L   (q,q)</tspan></text>
      <text
         id="text2052"
         y="29.633331"
         x="110.0667"
         style="font-size:2.82223px;line-height:1.25;font-family:sans-serif;stroke-width:0.264583"
         xml:space="preserve"><tspan
           y="29.633331"
           x="110.0667"
           style="stroke-width:0.264583"
           id="tspan2050"
           sodipodi:role="line">NN</tspan></text>
      <text
         id="text2056"
         y="24.341667"
         x="124.35413"
         style="font-size:2.82223px;line-height:1.25;font-family:sans-serif;stroke-width:0.264583"
         xml:space="preserve"><tspan
           y="24.341667"
           x="124.35413"
           style="font-size:5.64444px;stroke-width:0.264583"
           id="tspan2054"
           sodipodi:role="line">.</tspan></text>
    </g>
    <g
       id="g2074"
       transform="translate(17.991669,21.166667)">
      <text
         id="text2014"
         y="28.574995"
         x="186.26666"
         style="font-size:5.64444px;line-height:1.25;font-family:sans-serif;stroke-width:0.264583"
         xml:space="preserve"><tspan
           y="28.574995"
           x="186.26666"
           style="stroke-width:0.264583"
           id="tspan2012"
           sodipodi:role="line">q</tspan></text>
      <text
         id="text2060"
         y="24.341669"
         x="185.73749"
         style="font-size:2.82223px;line-height:1.25;font-family:sans-serif;stroke-width:0.264583"
         xml:space="preserve"><tspan
           y="24.341669"
           x="185.73749"
           style="font-size:5.64444px;stroke-width:0.264583"
           id="tspan2058"
           sodipodi:role="line">..</tspan></text>
    </g>
    <text
       xml:space="preserve"
       style="font-size:2.82223px;line-height:1.25;font-family:sans-serif;stroke-width:0.264583"
       x="-14.816667"
       y="-33.866665"
       id="text2078"><tspan
         sodipodi:role="line"
         id="tspan2076"
         style="font-size:5.64444px;stroke-width:0.264583"
         x="-14.816667"
         y="-33.866665">.</tspan></text>
    <path
       id="path2294"
       d="m 192.61669,26.458333 h 13.22917 v 14.552084"
       style="fill:none;stroke:#000000;stroke-width:0.705556;stroke-linecap:butt;stroke-linejoin:miter;stroke-miterlimit:4;stroke-dasharray:none;stroke-opacity:1;marker-end:url(#marker2298)"
       sodipodi:nodetypes="ccc" />
    <text
       xml:space="preserve"
       style="font-size:2.82223px;line-height:1.25;font-family:sans-serif;stroke-width:0.264583"
       x="-1.5875067"
       y="-30.691668"
       id="text2332"><tspan
         sodipodi:role="line"
         id="tspan2330"
         style="font-size:5.64444px;stroke-width:0.264583"
         x="-1.5875067"
         y="-30.691668">input</tspan></text>
    <text
       id="text2336"
       y="48.820343"
       x="176.38847"
       style="font-size:2.82223px;line-height:1.25;font-family:sans-serif;stroke-width:0.264583"
       xml:space="preserve"><tspan
         y="48.820343"
         x="176.38847"
         style="font-size:5.64444px;stroke-width:0.264583"
         id="tspan2334"
         sodipodi:role="line">output</tspan></text>
    <path
       style="fill:none;stroke:#000000;stroke-width:0.705556;stroke-linecap:butt;stroke-linejoin:miter;stroke-miterlimit:4;stroke-dasharray:none;stroke-opacity:1;marker-end:url(#marker2432)"
       d="m 19.049997,-21.166666 10e-7,29.104166"
       id="path2390"
       sodipodi:nodetypes="cc" />
    <path
       style="fill:none;stroke:#000000;stroke-width:0.264583px;stroke-linecap:butt;stroke-linejoin:miter;stroke-opacity:1"
       d="M 19.049997,-2.6458333 V 7.9374999"
       id="path2392" />
    <rect
       style="fill:#ffd2d2;stroke:#ff0000;stroke-width:0.705556;stroke-linecap:round;stroke-opacity:0.975708"
       id="rect2394"
       width="15.875"
       height="10.583333"
       x="37.570835"
       y="-12.700003"
       ry="5.2916665" />
    <text
       xml:space="preserve"
       style="font-size:2.82223px;line-height:1.25;font-family:sans-serif;stroke-width:0.264583"
       x="43.391663"
       y="-5.2916689"
       id="text2398"><tspan
         sodipodi:role="line"
         id="tspan2396"
         style="font-size:5.64444px;stroke-width:0.264583"
         x="43.391663"
         y="-5.2916689">T</tspan></text>
    <rect
       ry="5.2916665"
       y="-12.700003"
       x="64.02919"
       height="10.583333"
       width="15.875"
       id="rect2404"
       style="fill:#ffd2d2;stroke:#ff0000;stroke-width:0.705556;stroke-linecap:round;stroke-opacity:0.975708" />
    <text
       id="text2408"
       y="-5.2916689"
       x="69.849968"
       style="font-size:2.82223px;line-height:1.25;font-family:sans-serif;stroke-width:0.264583"
       xml:space="preserve"><tspan
         y="-5.2916689"
         x="69.849968"
         style="font-size:5.64444px;stroke-width:0.264583"
         id="tspan2406"
         sodipodi:role="line">R</tspan></text>
    <rect
       style="fill:#ffd2d2;stroke:#ff0000;stroke-width:0.705556;stroke-linecap:round;stroke-opacity:0.975708"
       id="rect2414"
       width="15.875"
       height="10.583333"
       x="90.487465"
       y="-19.57917"
       ry="5.2916665" />
    <text
       xml:space="preserve"
       style="font-size:2.82223px;line-height:1.25;font-family:sans-serif;stroke-width:0.264583"
       x="96.308289"
       y="-12.170833"
       id="text2418"><tspan
         sodipodi:role="line"
         id="tspan2416"
         style="font-size:5.64444px;stroke-width:0.264583"
         x="96.308289"
         y="-12.170833">T</tspan></text>
    <rect
       ry="5.2916665"
       y="-5.2916694"
       x="90.487465"
       height="10.583333"
       width="15.875"
       id="rect2602"
       style="fill:#ffd2d2;stroke:#ff0000;stroke-width:0.705556;stroke-linecap:round;stroke-opacity:0.975708" />
    <text
       id="text2606"
       y="2.1166646"
       x="96.308289"
       style="font-size:2.82223px;line-height:1.25;font-family:sans-serif;stroke-width:0.264583"
       xml:space="preserve"><tspan
         y="2.1166646"
         x="96.308289"
         style="font-size:5.64444px;stroke-width:0.264583"
         id="tspan2604"
         sodipodi:role="line">R</tspan></text>
    <path
       style="fill:none;stroke:#000000;stroke-width:0.705556;stroke-linecap:butt;stroke-linejoin:miter;stroke-miterlimit:4;stroke-dasharray:none;stroke-opacity:1"
       d="m 98.424983,-8.9958333 v 3.9687499"
       id="path2638" />
    <text
       xml:space="preserve"
       style="font-size:2.82223px;line-height:1.25;font-family:sans-serif;stroke-width:0.264583"
       x="-3.9687583"
       y="-2.9104161"
       id="text2684"><tspan
         sodipodi:role="line"
         id="tspan2682"
         style="font-size:16.9333px;stroke-width:0.264583"
         x="-3.9687583"
         y="-2.9104161">∈{</tspan></text>
    <text
       id="text2700"
       y="-1.8520827"
       x="109.27287"
       style="font-size:2.82223px;line-height:1.25;font-family:sans-serif;stroke-width:0.264583"
       xml:space="preserve"><tspan
         y="-1.8520827"
         x="109.27287"
         style="font-size:16.9333px;stroke-width:0.264583"
         id="tspan2698"
         sodipodi:role="line">}</tspan></text>
    <text
       xml:space="preserve"
       style="font-size:2.82223px;line-height:1.25;font-family:sans-serif;stroke-width:0.264583"
       x="26.987509"
       y="1.8520833"
       id="text2704"><tspan
         sodipodi:role="line"
         id="tspan2702"
         style="font-size:11.2889px;stroke-width:0.264583"
         x="26.987509"
         y="1.8520833">,</tspan></text>
    <text
       id="text2708"
       y="1.8520833"
       x="53.445824"
       style="font-size:2.82223px;line-height:1.25;font-family:sans-serif;stroke-width:0.264583"
       xml:space="preserve"><tspan
         y="1.8520833"
         x="53.445824"
         style="font-size:11.2889px;stroke-width:0.264583"
         id="tspan2706"
         sodipodi:role="line">,</tspan></text>
    <text
       id="text2712"
       y="1.8520833"
       x="79.904137"
       style="font-size:2.82223px;line-height:1.25;font-family:sans-serif;stroke-width:0.264583"
       xml:space="preserve"><tspan
         y="1.8520833"
         x="79.904137"
         style="font-size:11.2889px;stroke-width:0.264583"
         id="tspan2710"
         sodipodi:role="line">,</tspan></text>
    <text
       xml:space="preserve"
       style="font-size:2.82223px;line-height:1.25;font-family:sans-serif;stroke-width:0.264583"
       x="31.220846"
       y="-26.458332"
       id="text2716"><tspan
         sodipodi:role="line"
         id="tspan2714"
         style="font-size:4.23333px;stroke-width:0.264583"
         x="31.220846"
         y="-26.458332">symmetry enforcing layer</tspan></text>
    <text
       id="text1022"
       y="22.486897"
       x="57.149998"
       style="font-size:5.64444px;line-height:1.25;font-family:sans-serif;stroke-width:0.264583"
       xml:space="preserve"><tspan
         y="22.486897"
         x="57.149998"
         style="font-size:4.23333px;stroke-width:0.264583"
         id="tspan1020"
         sodipodi:role="line">dense layers</tspan></text>
    <g
       transform="matrix(1.1581249,0,0,1.1536021,-25.113789,-4.5288479)"
       id="g2782">
      <g
         id="g2738">
        <g
           id="g2257"
           inkscape:label="Untitled"
           transform="matrix(0.10117265,0,0,-0.10117265,145.16481,33.924575)">
          <g
             id="g2259" />
          <g
             id="g2261">
            <g
               id="g2263"
               transform="matrix(1e-6,0,0,1e-6,201,44)">
              <path
                 d="m 0,0 c 60,108 97,116 101,120 4,-4 -69,-5 3,-23 -55,-2 -6,0 11,4 -61,-49 -54,-67 -7,-33 -53,21 -2,53 0,-3 6,21 -39,52 -52,-17 41,65 55,31 21,72 -22,-52 35,-20 42,-5 0,-54 -85,-53 -54,-50 0,2 23,45 40,34 C 98,86 70,98 83,121 77,120 70,77 55,77 c 46,36 -5,37 -6,41 37,-10 70,-28 52,1 -11,-34 -31,-53 20,-67 0,21 -78,62 -48,51 -30,11 2,-30 32,-34 -30,45 -24,44 -6,10 10,23 -17,-2 -28,-23 49,43 13,21 -19,59 56,-9 14,-68 -4,-9 54,-16 60,-59 0,6 42,4 66,-46 6,8 -2,-47 -1,2 64,-18 -1,-19 -32,0 -7,6 8,-33 -5,-18 -56,-57 -2,25 49,51 35,58 8,1 -37,-5 9,-22 -28,-39 17,15 9,-38 -8,38 1,1 10,53 -4,8 -36,-15 -43,-37 -22,35 35,50 33,12 -57,8 -26,0 -5,43 -22,-8 -3,-50 -32,-17 33,-29 45,-4 -6,-18 50,20 2,15 37,-3 -51,3 7,4 16,-35 -66,21 -35,64 -3,68 -60,-14 -50,-63 -11,-64 -49,16 0,62 5,22 -43,14 -9,38 4,25 C 66,90 66,73 78,66 104,117 97,43 112,76 47,111 97,87 105,67 97,98 66,100 43,47 76,87 55,72 84,75 81,69 75,77 109,122 83,73 70,101 77,109 121,74 108,67 119,83 81,57 115,57 85,73 c -17,-23 21,6 37,-17 -5,65 -20,23 -34,60 25,-50 -39,-62 13,0 14,-42 21,-14 -50,-40 58,2 60,-4 32,27 37,-31 34,-34 2,-5 4,0 -5,10 31,0 -66,-24 -68,1 -69,-33 67,-17 24,11 2,7 40,10 29,32 -2,44 20,-46 5,-9 60,-49 C 75,88 84,79 117,101 55,43 88,89 78,57 86,75 76,113 70,115 66,73 87,71 110,80 69,55 78,111 83,101 104,83 108,76 81,80 c 21,-2 1,-6 -27,3 -7,31 30,-6 49,-6 -6,13 12,28 -3,-7 -21,39 -28,32 0,34 5,-17 -3,-36 -51,-25 24,29 68,11 28,-13 45,46 29,-11 32,9 -62,-5 -66,42 -23,-25 -20,6 -36,18 13,55 23,-24 18,-36 9,-36 -52,19 12,20 -21,38 22,-29 -17,-32 10,15 14,-41 -30,-16 9,-47 9,6 -19,2 -31,-25 -3,68 8,68 34,23 -22,9 -21,9 -62,34 56,1 56,11 0,13 74,-30 0,-54 2,-33 6,11 2,-37 -2,31 41,-30 66,-2 64,-75 -33,54 -5,60 -24,78 C 81,88 54,81 84,101 75,84 65,51 74,69 c 28,43 3,7 -26,36 39,-6 -1,-33 37,-6 27,-56 -16,16 -6,3 -32,-3 0,-14 23,-12 -14,0 -52,-3 15,17 -62,-7 -2,-59 -62,-6 54,1 63,-44 16,-2 11,-18 45,20 18,-38 -29,-14 19,36 27,40 4,4 0,-39 -116,-101 z"
                 style="fill:none;stroke:#000000;stroke-width:1;stroke-linecap:butt;stroke-linejoin:miter;stroke-miterlimit:10;stroke-dasharray:none;stroke-opacity:0"
                 id="path2265" />
            </g>
          </g>
          <g
             id="g2267">
            <g
               id="g2269"
               clip-path="url(#clipPath2273)">
              <g
                 id="g2275"
                 transform="matrix(0.1,0,0,0.1,0.335812,0.45)">
                <path
                   d="m 2010,436.801 v 0 0 0 0 0 0 0 0 0 0 0 0 0 0 0 0 0 0 0 0 0 0 0 0 0 0 0 0 0 0 0 0 0 0 0 0 0 0 0 0 0 0 0 0 0 0 0 0 0 0 0 0 0 0 0 0 0 0 0 0 0 0 0 0 0 0 0 0 0 0 0 0 0 0 0 0 0 z"
                   style="fill:none;stroke:#000000;stroke-linecap:butt;stroke-linejoin:miter;stroke-miterlimit:10;stroke-dasharray:none;stroke-opacity:0"
                   id="path2277" />
              </g>
            </g>
          </g>
          <g
             id="g2279">
            <g
               id="g2281"
               clip-path="url(#clipPath2285)">
              <path
                 d="m 9.212372,57.1375 c 0,0.8609 -0.71718,1.7922 -1.79218,1.7922 -1.00313,0 -1.79219,-0.7875 -1.79219,-1.7922 0,-1.0031 0.78906,-1.7922 1.79219,-1.7922 1.075,0 1.79218,0.9328 1.79218,1.7922 z m 6.918738,0 c 0,1.0047 -0.789,1.7922 -1.7922,1.7922 -1.0765,0 -1.7937,-0.9313 -1.7937,-1.7922 0,-0.8594 0.7172,-1.7922 1.7937,-1.7922 1.0032,0 1.7922,0.7891 1.7922,1.7922"
                 style="fill:#000000;fill-opacity:1;fill-rule:nonzero;stroke:none"
                 id="path2287" />
              <path
                 d="m 15.43741,50.3984 c 0,0.1438 -0.1078,0.3594 -0.3578,0.3594 -0.3954,0 -1.8282,-1.4344 -2.4375,-2.4734 -0.7891,1.9359 -2.1875,2.5094 -3.334418,2.5094 -4.22969,0 -8.637505,-5.3047 -8.637505,-10.5032 0,-3.5125 2.114065,-5.7343 4.731255,-5.7343 1.54062,0 2.93906,0.8593 4.22968,2.15 -0.32343,-1.2547 -1.50625,-6.0938 -1.6125,-6.4157 -0.2875,-1.0047 -0.575,-1.1468 -2.58125,-1.1828 -0.46562,0 -0.825,0 -0.825,-0.7172 0,-0.0359 0,-0.3953 0.46563,-0.3953 1.14687,0 2.40156,0.1078 3.58437,0.1078 1.21875,0 2.509338,-0.1078 3.692238,-0.1078 0.1796,0 0.6453,0 0.6453,0.7172 0,0.3953 -0.3578,0.3953 -0.9313,0.3953 -1.7203,0 -1.7203,0.25 -1.7203,0.5735 0,0.25 0.0719,0.4656 0.1422,0.7875 z M 5.509252,35.3438 c -2.15156,0 -2.29531,2.7609 -2.29531,3.3703 0,1.7203 1.04062,5.6265 1.65,7.1328 1.11093,2.6531 2.975,4.1578 4.44375,4.1578 2.331218,0 2.832818,-2.9031 2.832818,-3.1547 0,-0.2141 -1.97189,-8.0641 -2.0797,-8.2078 C 9.523312,37.6391 7.515502,35.3438 5.509252,35.3438"
                 style="fill:#000000;fill-opacity:1;fill-rule:nonzero;stroke:none"
                 id="path2289" />
              <path
                 d="m 51.16081,46.6719 c 0.5375,0 1.2188,0 1.2188,0.7156 0,0.7172 -0.6813,0.7172 -1.1829,0.7172 h -21.4703 c -0.5015,0 -1.1828,0 -1.1828,-0.7172 0,-0.7156 0.6813,-0.7156 1.2188,-0.7156 z m 0.0359,-6.9547 c 0.5016,0 1.1829,0 1.1829,0.7172 0,0.7172 -0.6813,0.7172 -1.2188,0.7172 h -21.3984 c -0.5375,0 -1.2188,0 -1.2188,-0.7172 0,-0.7172 0.6813,-0.7172 1.1828,-0.7172 h 21.4703"
                 style="fill:#000000;fill-opacity:1;fill-rule:nonzero;stroke:none"
                 id="path2291" />
              <path
                 d="m 83.72801,56.8156 c 0.2875,1.1828 0.3578,1.5047 2.3297,1.5047 0.5734,0 0.9687,0 0.9687,0.6813 0,0.3234 -0.2156,0.4312 -0.5031,0.4312 -0.8953,0 -3.0828,-0.1078 -3.9781,-0.1078 -1.1828,0 -4.086,0.1078 -5.2688,0.1078 -0.3234,0 -0.7531,0 -0.7531,-0.7172 0,-0.3953 0.2859,-0.3953 1.2188,-0.3953 0.825,0 1.1828,0 2.0781,-0.0703 0.8609,-0.1078 1.1125,-0.2156 1.1125,-0.7172 0,-0.2156 -0.0719,-0.4672 -0.1438,-0.7531 l -4.1218,-16.4531 c -0.861,-3.4766 -3.2985,-5.3766 -5.1625,-5.3766 -0.9313,0 -2.8313,0.3578 -3.4047,2.2219 0.1078,-0.036 0.3578,-0.036 0.4297,-0.036 1.3984,0 2.3296,1.2188 2.3296,2.2954 0,1.1468 -0.9671,1.5046 -1.5765,1.5046 -0.6453,0 -2.4016,-0.4296 -2.4016,-2.8671 0,-2.2219 1.9,-3.9079 4.7313,-3.9079 3.2984,0 7.025,2.3657 7.9218,5.9157 l 4.1938,16.739"
                 style="fill:#000000;fill-opacity:1;fill-rule:nonzero;stroke:none"
                 id="path2293" />
              <path
                 d="m 106.4028,55.9203 c 0.402,0 1.003,0 1.003,0.6016 0,0.6281 -0.576,0.6281 -1.003,0.6281 H 91.44991 c -0.4016,0 -1.0047,0 -1.0047,-0.6031 0,-0.6266 0.5781,-0.6266 1.0047,-0.6266 h 14.95289"
                 style="fill:#000000;fill-opacity:1;fill-rule:nonzero;stroke:none"
                 id="path2295" />
              <path
                 d="m 122.3298,65.4297 c 0.175,0.7281 0.226,0.8031 0.778,0.8531 0.125,0.025 1.003,0.025 1.505,0.025 1.531,0 2.182,0 2.811,-0.2015 1.128,-0.35 1.178,-1.0782 1.178,-1.9813 0,-0.4016 0,-0.7281 -0.175,-2.0328 l -0.05,-0.275 c 0,-0.2516 0.175,-0.3766 0.426,-0.3766 0.377,0 0.427,0.225 0.477,0.6266 l 0.676,4.7922 c 0,0.3515 -0.3,0.3515 -0.751,0.3515 h -15.431 c -0.627,0 -0.677,0 -0.854,-0.5265 l -1.579,-4.4406 c -0.025,-0.1016 -0.127,-0.3266 -0.127,-0.4532 0,-0.1 0.052,-0.35 0.427,-0.35 0.326,0 0.376,0.125 0.528,0.6016 1.455,4.0141 2.283,4.2656 6.097,4.2656 h 1.053 c 0.753,0 0.778,-0.025 0.778,-0.2515 0,-0.025 0,-0.15 -0.1,-0.5266 l -3.313,-13.1969 c -0.225,-0.9281 -0.301,-1.1797 -2.935,-1.1797 -0.904,0 -1.129,0 -1.129,-0.5515 0,-0.075 0.05,-0.3516 0.427,-0.3516 0.702,0 1.455,0.075 2.158,0.075 0.701,0 1.454,0.025 2.158,0.025 0.701,0 1.554,0 2.257,-0.025 0.677,-0.025 1.43,-0.075 2.108,-0.075 0.2,0 0.577,0 0.577,0.5516 0,0.3515 -0.252,0.3515 -1.028,0.3515 -0.478,0 -0.98,0.025 -1.457,0.05 -0.853,0.075 -0.903,0.1766 -0.903,0.4766 0,0.1766 0,0.2266 0.1,0.5781 l 3.313,13.1719"
                 style="fill:#000000;fill-opacity:1;fill-rule:nonzero;stroke:none"
                 id="path2297" />
              <path
                 d="m 95.00611,40.1047 c 0,0.8031 -0.6281,1.4562 -1.4312,1.4562 -0.8532,0 -1.4297,-0.7031 -1.4297,-1.4296 0,-0.8032 0.6265,-1.4563 1.4297,-1.4563 0.8531,0 1.4312,0.7031 1.4312,1.4297"
                 style="fill:#000000;fill-opacity:1;fill-rule:nonzero;stroke:none"
                 id="path2299" />
              <path
                 d="m 97.00611,34.9875 c 0.025,0.1 0.05,0.25 0.05,0.3766 0,0.15 -0.1,0.35 -0.325,0.35 -0.2515,0 -1.3047,-0.8532 -1.8062,-1.6547 -0.2516,0.5015 -1.0797,1.6547 -2.686,1.6547 -3.2109,0 -6.4718,-3.5375 -6.4718,-7.15 0,-2.4344 1.6296,-4.1657 3.7875,-4.1657 1.4296,0 2.6093,0.9032 3.1609,1.3813 -0.025,-0.0766 -0.8016,-3.2375 -0.9031,-3.6641 -0.35,-1.3797 -0.375,-1.4047 -1.9313,-1.4297 -0.3015,0 -0.6531,0 -0.6531,-0.5515 0,-0.1516 0.1266,-0.3516 0.3766,-0.3516 0.8281,0 1.7562,0.1 2.6093,0.1 0.8532,0 1.9078,-0.1 2.6844,-0.1 0.2266,0 0.5031,0.075 0.5031,0.5516 0,0.3515 -0.3515,0.3515 -0.6531,0.3515 -0.5516,0 -1.2297,0 -1.2297,0.3016 0,0.075 0,0.125 0.1266,0.5516 z m -3.7875,-7.1766 c -0.1265,-0.4265 -0.1265,-0.4765 -0.4515,-0.8781 -0.9797,-1.1531 -2.1579,-1.8312 -3.1375,-1.8312 -0.9282,0 -1.8313,0.6531 -1.8313,2.4343 0,1.3297 0.7281,4.0891 1.3047,5.0922 1.1547,2.0078 2.4344,2.3844 3.1359,2.3844 1.7563,0 2.2328,-1.9328 2.2328,-2.1828 0,-0.1266 -0.05,-0.2766 -0.075,-0.3766 l -1.1781,-4.6422"
                 style="fill:#000000;fill-opacity:1;fill-rule:nonzero;stroke:none"
                 id="path2301" />
              <path
                 d="m 103.6298,25.0516 c 0,-1.3797 -0.25,-2.986 -1.956,-4.5922 -0.102,-0.1 -0.177,-0.175 -0.177,-0.3 0,-0.1766 0.202,-0.3516 0.352,-0.3516 0.351,0 2.484,2.0063 2.484,4.9922 0,1.5563 -0.603,2.7359 -1.756,2.7359 -0.828,0 -1.432,-0.6531 -1.432,-1.4312 0,-0.8031 0.579,-1.4547 1.457,-1.4547 0.601,0 1.003,0.4016 1.028,0.4016"
                 style="fill:#000000;fill-opacity:1;fill-rule:nonzero;stroke:none"
                 id="path2303" />
              <path
                 d="m 117.6058,40.1047 c 0,0.8031 -0.628,1.4562 -1.431,1.4562 -0.853,0 -1.43,-0.7031 -1.43,-1.4296 0,-0.8032 0.627,-1.4563 1.43,-1.4563 0.853,0 1.431,0.7031 1.431,1.4297"
                 style="fill:#000000;fill-opacity:1;fill-rule:nonzero;stroke:none"
                 id="path2305" />
              <path
                 d="m 119.6058,34.9875 c 0.025,0.1 0.05,0.25 0.05,0.3766 0,0.15 -0.1,0.35 -0.325,0.35 -0.251,0 -1.304,-0.8532 -1.806,-1.6547 -0.251,0.5015 -1.08,1.6547 -2.686,1.6547 -3.211,0 -6.472,-3.5375 -6.472,-7.15 0,-2.4344 1.63,-4.1657 3.788,-4.1657 1.429,0 2.609,0.9032 3.161,1.3813 -0.025,-0.0766 -0.802,-3.2375 -0.903,-3.6641 -0.35,-1.3797 -0.375,-1.4047 -1.932,-1.4297 -0.301,0 -0.653,0 -0.653,-0.5515 0,-0.1516 0.127,-0.3516 0.377,-0.3516 0.828,0 1.756,0.1 2.609,0.1 0.853,0 1.908,-0.1 2.685,-0.1 0.226,0 0.503,0.075 0.503,0.5516 0,0.3515 -0.352,0.3515 -0.653,0.3515 -0.552,0 -1.23,0 -1.23,0.3016 0,0.075 0,0.125 0.126,0.5516 z m -3.787,-7.1766 c -0.127,-0.4265 -0.127,-0.4765 -0.452,-0.8781 -0.979,-1.1531 -2.158,-1.8312 -3.137,-1.8312 -0.928,0 -1.831,0.6531 -1.831,2.4343 0,1.3297 0.728,4.0891 1.304,5.0922 1.155,2.0078 2.435,2.3844 3.136,2.3844 1.756,0 2.233,-1.9328 2.233,-2.1828 0,-0.1266 -0.05,-0.2766 -0.075,-0.3766 l -1.178,-4.6422"
                 style="fill:#000000;fill-opacity:1;fill-rule:nonzero;stroke:none"
                 id="path2307" />
              <path
                 d="m 163.7278,1.25 c 0,0.14375 -0.072,0.21563 -0.144,0.32188 -1.326,1.32656 -3.728,3.72812 -6.129,7.6 -5.772,9.24842 -8.388,20.89692 -8.388,34.69842 0,9.6422 1.291,22.0797 7.205,32.7625 2.831,5.0891 5.77,8.0281 7.348,9.6063 0.108,0.1078 0.108,0.1781 0.108,0.2859 0,0.3594 -0.251,0.3594 -0.753,0.3594 -0.501,0 -0.573,0 -1.111,-0.5375 -12.009,-10.9328 -15.772,-27.35 -15.772,-42.4406 0,-14.0875 3.225,-28.2829 12.33,-39.00005 0.717,-0.825 2.08,-2.29375 3.548,-3.584375 0.432,-0.429687 0.504,-0.429687 1.005,-0.429687 0.502,0 0.753,0 0.753,0.357812"
                 style="fill:#000000;fill-opacity:1;fill-rule:nonzero;stroke:none"
                 id="path2309" />
              <path
                 d="m 186.0328,71.3016 c -0.359,2.2218 -1.828,4.2297 -4.625,4.2297 -2.186,0 -4.516,-0.5735 -7.313,-3.3688 -2.975,-2.9766 -3.225,-6.3094 -3.225,-7.4203 0,-2.2234 1.577,-6.3813 6.596,-6.3813 8.531,0 12.259,12.0438 12.259,17.1704 0,5.7 -3.334,9.2843 -7.744,9.2843 -5.197,0 -6.845,-4.6609 -6.845,-5.664 0,-0.5016 0.286,-1.2547 1.361,-1.2547 1.183,0 1.936,1.075 1.936,1.9 0,1.2547 -1.111,1.2547 -1.684,1.2547 1.576,2.6515 4.121,2.8672 5.16,2.8672 2.618,0 5.127,-1.8641 5.127,-6.4875 0,-1.3985 -0.216,-3.2266 -0.967,-6.1297 z m -8.459,-11.936 c -3.944,0 -3.944,3.6922 -3.944,4.05 0,0.9672 0.897,5.986 2.365,8.1375 1.435,2.0422 3.191,3.1891 5.413,3.1891 3.908,0 3.98,-4.0141 3.98,-4.7313 0,-2.5812 -2.296,-10.6453 -7.814,-10.6453"
                 style="fill:#000000;fill-opacity:1;fill-rule:nonzero;stroke:none"
                 id="path2311" />
              <path
                 d="m 203.8418,80.8359 c 0.322,1.2907 0.43,1.6844 3.8,1.6844 1.075,0 1.361,0 1.361,0.6813 0,0.4312 -0.394,0.4312 -0.573,0.4312 -1.183,0 -4.122,-0.1078 -5.305,-0.1078 -1.075,0 -3.692,0.1078 -4.767,0.1078 -0.252,0 -0.681,0 -0.681,-0.7172 0,-0.3953 0.323,-0.3953 1.003,-0.3953 0.072,0 0.753,0 1.362,-0.0703 0.646,-0.0719 0.969,-0.1078 0.969,-0.575 0,-0.1422 -0.036,-0.25 -0.144,-0.6797 l -4.803,-19.25 c -0.359,-1.3969 -0.431,-1.6844 -3.262,-1.6844 -0.61,0 -0.968,0 -0.968,-0.7171 0,-0.3938 0.322,-0.3938 0.968,-0.3938 h 16.597 c 0.859,0 0.895,0 1.11,0.6094 l 2.832,7.7422 c 0.143,0.3953 0.143,0.4656 0.143,0.5015 0,0.1438 -0.107,0.3953 -0.429,0.3953 -0.324,0 -0.36,-0.1796 -0.61,-0.7531 -1.218,-3.2984 -2.796,-7.3844 -8.996,-7.3844 h -3.371 c -0.501,0 -0.573,0 -0.789,0.036 -0.358,0.0359 -0.465,0.0719 -0.465,0.3594 0,0.1062 0,0.1781 0.179,0.8234 l 4.839,19.3562"
                 style="fill:#000000;fill-opacity:1;fill-rule:nonzero;stroke:none"
                 id="path2313" />
              <path
                 d="m 221.3838,70.5094 c -0.276,0.3515 -0.301,0.3765 -0.803,0.3765 h -4.34 v -0.9031 h 0.753 c 1.078,0 1.706,-0.125 1.831,-0.15 V 56.4594 c 0,-0.6766 0,-1.8063 -2.584,-1.8063 V 53.75 c 1.029,0.075 2.033,0.1 3.061,0.1 1.029,0 2.032,-0.025 3.061,-0.1 v 0.9031 c -2.585,0 -2.585,1.1297 -2.585,1.8063 v 12.6703 l 11.141,-15.0031 c 0.25,-0.3516 0.276,-0.3766 0.576,-0.3766 0.477,0 0.477,0.2266 0.477,0.7031 v 13.7235 c 0,0.6781 0,1.8062 2.584,1.8062 v 0.9031 c -1.028,-0.075 -2.031,-0.1 -3.061,-0.1 -1.028,0 -2.031,0.025 -3.061,0.1 v -0.9031 c 2.585,0 2.585,-1.1281 2.585,-1.8062 V 57.5391 l -9.635,12.9703"
                 style="fill:#000000;fill-opacity:1;fill-rule:nonzero;stroke:none"
                 id="path2315" />
              <path
                 d="m 242.5838,70.5094 c -0.276,0.3515 -0.301,0.3765 -0.803,0.3765 h -4.34 v -0.9031 h 0.753 c 1.078,0 1.706,-0.125 1.831,-0.15 V 56.4594 c 0,-0.6766 0,-1.8063 -2.584,-1.8063 V 53.75 c 1.029,0.075 2.033,0.1 3.061,0.1 1.029,0 2.032,-0.025 3.061,-0.1 v 0.9031 c -2.585,0 -2.585,1.1297 -2.585,1.8063 v 12.6703 l 11.141,-15.0031 c 0.25,-0.3516 0.276,-0.3766 0.576,-0.3766 0.477,0 0.477,0.2266 0.477,0.7031 v 13.7235 c 0,0.6781 0,1.8062 2.584,1.8062 v 0.9031 c -1.028,-0.075 -2.031,-0.1 -3.061,-0.1 -1.028,0 -2.031,0.025 -3.061,0.1 v -0.9031 c 2.585,0 2.585,-1.1281 2.585,-1.8062 V 57.5391 l -9.635,12.9703"
                 style="fill:#000000;fill-opacity:1;fill-rule:nonzero;stroke:none"
                 id="path2317" />
              <g
                 id="g2319"
                 transform="matrix(0.1,0,0,0.1,0.335812,0.45)">
                <path
                   d="m 1690.57,434.199 h 895.76"
                   style="fill:none;stroke:#000000;stroke-width:14.328;stroke-linecap:butt;stroke-linejoin:miter;stroke-miterlimit:10;stroke-dasharray:none;stroke-opacity:1"
                   id="path2321" />
              </g>
              <path
                 d="m 211.6328,22.5016 c -0.359,2.2218 -1.828,4.2297 -4.625,4.2297 -2.186,0 -4.516,-0.5735 -7.313,-3.3688 -2.975,-2.9766 -3.225,-6.3094 -3.225,-7.4203 0,-2.2234 1.577,-6.38126 6.596,-6.38126 8.531,0 12.259,12.04376 12.259,17.17036 0,5.7 -3.334,9.2843 -7.744,9.2843 -5.197,0 -6.845,-4.6609 -6.845,-5.664 0,-0.5016 0.286,-1.2547 1.361,-1.2547 1.183,0 1.936,1.075 1.936,1.9 0,1.2547 -1.111,1.2547 -1.684,1.2547 1.576,2.6515 4.121,2.8672 5.16,2.8672 2.618,0 5.127,-1.8641 5.127,-6.4875 0,-1.3985 -0.216,-3.2266 -0.967,-6.1297 z m -8.459,-11.936 c -3.944,0 -3.944,3.6922 -3.944,4.05 0,0.9672 0.897,5.986 2.365,8.1375 1.435,2.0422 3.191,3.1891 5.413,3.1891 3.908,0 3.98,-4.0141 3.98,-4.7313 0,-2.5812 -2.296,-10.6453 -7.814,-10.6453"
                 style="fill:#000000;fill-opacity:1;fill-rule:nonzero;stroke:none"
                 id="path2323" />
              <path
                 d="m 232.2378,25.7984 c 0,0.1438 -0.108,0.3594 -0.358,0.3594 -0.396,0 -1.828,-1.4344 -2.438,-2.4734 -0.789,1.9359 -2.187,2.5094 -3.334,2.5094 -4.23,0 -8.638,-5.3047 -8.638,-10.5032 0,-3.5125 2.114,-5.73435 4.732,-5.73435 1.54,0 2.939,0.85935 4.229,2.15005 -0.323,-1.2547 -1.506,-6.0938 -1.612,-6.41567 -0.288,-1.00469 -0.575,-1.14688 -2.581,-1.18282 -0.466,0 -0.825,0 -0.825,-0.71718 0,-0.03594 0,-0.39532 0.465,-0.39532 1.147,0 2.402,0.10782 3.585,0.10782 1.218,0 2.509,-0.10782 3.692,-0.10782 0.179,0 0.645,0 0.645,0.71719 0,0.39531 -0.358,0.39531 -0.931,0.39531 -1.72,0 -1.72,0.25 -1.72,0.57344 0,0.25 0.071,0.46563 0.142,0.7875 z m -9.929,-15.0546 c -2.151,0 -2.295,2.7609 -2.295,3.3703 0,1.7203 1.041,5.6265 1.65,7.1328 1.111,2.6531 2.975,4.1578 4.444,4.1578 2.331,0 2.833,-2.9031 2.833,-3.1547 0,-0.2141 -1.972,-8.0641 -2.08,-8.2078 -0.537,-1.0031 -2.545,-3.2984 -4.552,-3.2984"
                 style="fill:#000000;fill-opacity:1;fill-rule:nonzero;stroke:none"
                 id="path2325" />
              <path
                 d="m 294.8578,43.1938 c 0.609,0 1.255,0 1.255,0.7171 0,0.7172 -0.646,0.7172 -1.255,0.7172 h -19.392 c -0.61,0 -1.255,0 -1.255,-0.7172 0,-0.7171 0.645,-0.7171 1.255,-0.7171 h 19.392"
                 style="fill:#000000;fill-opacity:1;fill-rule:nonzero;stroke:none"
                 id="path2327" />
              <path
                 d="m 326.5278,56.8156 c 0.288,1.1828 0.358,1.5047 2.33,1.5047 0.573,0 0.969,0 0.969,0.6813 0,0.3234 -0.216,0.4312 -0.503,0.4312 -0.896,0 -3.083,-0.1078 -3.979,-0.1078 -1.182,0 -4.086,0.1078 -5.268,0.1078 -0.324,0 -0.753,0 -0.753,-0.7172 0,-0.3953 0.285,-0.3953 1.218,-0.3953 0.825,0 1.183,0 2.078,-0.0703 0.861,-0.1078 1.113,-0.2156 1.113,-0.7172 0,-0.2156 -0.072,-0.4672 -0.144,-0.7531 l -4.122,-16.4531 c -0.861,-3.4766 -3.298,-5.3766 -5.162,-5.3766 -0.931,0 -2.831,0.3578 -3.405,2.2219 0.108,-0.036 0.358,-0.036 0.43,-0.036 1.398,0 2.329,1.2188 2.329,2.2954 0,1.1468 -0.967,1.5046 -1.576,1.5046 -0.645,0 -2.402,-0.4296 -2.402,-2.8671 0,-2.2219 1.9,-3.9079 4.732,-3.9079 3.298,0 7.025,2.3657 7.921,5.9157 l 4.194,16.739"
                 style="fill:#000000;fill-opacity:1;fill-rule:nonzero;stroke:none"
                 id="path2329" />
              <path
                 d="m 342.6298,64.9297 c 0.175,0.7281 0.226,0.8031 0.778,0.8531 0.125,0.025 1.003,0.025 1.505,0.025 1.531,0 2.182,0 2.811,-0.2015 1.128,-0.35 1.178,-1.0782 1.178,-1.9813 0,-0.4016 0,-0.7281 -0.175,-2.0328 l -0.05,-0.275 c 0,-0.2516 0.175,-0.3766 0.426,-0.3766 0.377,0 0.427,0.225 0.477,0.6266 l 0.676,4.7922 c 0,0.3515 -0.3,0.3515 -0.751,0.3515 h -15.431 c -0.627,0 -0.677,0 -0.854,-0.5265 l -1.579,-4.4406 c -0.025,-0.1016 -0.127,-0.3266 -0.127,-0.4532 0,-0.1 0.052,-0.35 0.427,-0.35 0.326,0 0.376,0.125 0.528,0.6016 1.455,4.0141 2.283,4.2656 6.097,4.2656 h 1.053 c 0.753,0 0.778,-0.025 0.778,-0.2515 0,-0.025 0,-0.15 -0.1,-0.5266 l -3.313,-13.1969 c -0.225,-0.9281 -0.301,-1.1797 -2.935,-1.1797 -0.904,0 -1.129,0 -1.129,-0.5515 0,-0.075 0.05,-0.3516 0.427,-0.3516 0.702,0 1.455,0.075 2.158,0.075 0.701,0 1.454,0.025 2.158,0.025 0.701,0 1.554,0 2.257,-0.025 0.677,-0.025 1.43,-0.075 2.108,-0.075 0.2,0 0.577,0 0.577,0.5516 0,0.3515 -0.252,0.3515 -1.028,0.3515 -0.478,0 -0.98,0.025 -1.457,0.05 -0.853,0.075 -0.903,0.1766 -0.903,0.4766 0,0.1766 0,0.2266 0.1,0.5781 l 3.313,13.1719"
                 style="fill:#000000;fill-opacity:1;fill-rule:nonzero;stroke:none"
                 id="path2331" />
              <path
                 d="m 339.8058,36.3875 c 0.025,0.1 0.05,0.25 0.05,0.3766 0,0.15 -0.1,0.35 -0.325,0.35 -0.251,0 -1.304,-0.8532 -1.806,-1.6547 -0.251,0.5015 -1.08,1.6547 -2.686,1.6547 -3.211,0 -6.472,-3.5375 -6.472,-7.15 0,-2.4344 1.63,-4.1657 3.788,-4.1657 1.429,0 2.609,0.9032 3.161,1.3813 -0.025,-0.0766 -0.802,-3.2375 -0.903,-3.6641 -0.35,-1.3797 -0.375,-1.4047 -1.932,-1.4297 -0.301,0 -0.653,0 -0.653,-0.5515 0,-0.1516 0.127,-0.3516 0.377,-0.3516 0.828,0 1.756,0.1 2.609,0.1 0.853,0 1.908,-0.1 2.685,-0.1 0.226,0 0.503,0.075 0.503,0.5516 0,0.3515 -0.352,0.3515 -0.653,0.3515 -0.552,0 -1.23,0 -1.23,0.3016 0,0.075 0,0.125 0.126,0.5516 z m -3.787,-7.1766 c -0.127,-0.4265 -0.127,-0.4765 -0.452,-0.8781 -0.979,-1.1531 -2.158,-1.8312 -3.137,-1.8312 -0.928,0 -1.831,0.6531 -1.831,2.4343 0,1.3297 0.728,4.0891 1.304,5.0922 1.155,2.0078 2.435,2.3844 3.136,2.3844 1.756,0 2.233,-1.9328 2.233,-2.1828 0,-0.1266 -0.05,-0.2766 -0.075,-0.3766 l -1.178,-4.6422"
                 style="fill:#000000;fill-opacity:1;fill-rule:nonzero;stroke:none"
                 id="path2333" />
              <path
                 d="m 346.3298,26.4516 c 0,-1.3797 -0.25,-2.986 -1.956,-4.5922 -0.102,-0.1 -0.177,-0.175 -0.177,-0.3 0,-0.1766 0.202,-0.3516 0.352,-0.3516 0.351,0 2.484,2.0063 2.484,4.9922 0,1.5563 -0.603,2.7359 -1.756,2.7359 -0.828,0 -1.432,-0.6531 -1.432,-1.4312 0,-0.8031 0.579,-1.4547 1.457,-1.4547 0.601,0 1.003,0.4016 1.028,0.4016"
                 style="fill:#000000;fill-opacity:1;fill-rule:nonzero;stroke:none"
                 id="path2335" />
              <path
                 d="m 360.3058,41.5047 c 0,0.8031 -0.628,1.4562 -1.431,1.4562 -0.853,0 -1.43,-0.7031 -1.43,-1.4296 0,-0.8032 0.627,-1.4563 1.43,-1.4563 0.853,0 1.431,0.7031 1.431,1.4297"
                 style="fill:#000000;fill-opacity:1;fill-rule:nonzero;stroke:none"
                 id="path2337" />
              <path
                 d="m 362.3058,36.3875 c 0.025,0.1 0.05,0.25 0.05,0.3766 0,0.15 -0.1,0.35 -0.325,0.35 -0.251,0 -1.304,-0.8532 -1.806,-1.6547 -0.251,0.5015 -1.08,1.6547 -2.686,1.6547 -3.211,0 -6.472,-3.5375 -6.472,-7.15 0,-2.4344 1.63,-4.1657 3.788,-4.1657 1.429,0 2.609,0.9032 3.161,1.3813 -0.025,-0.0766 -0.802,-3.2375 -0.903,-3.6641 -0.35,-1.3797 -0.375,-1.4047 -1.932,-1.4297 -0.301,0 -0.653,0 -0.653,-0.5515 0,-0.1516 0.127,-0.3516 0.377,-0.3516 0.828,0 1.756,0.1 2.609,0.1 0.853,0 1.908,-0.1 2.685,-0.1 0.226,0 0.503,0.075 0.503,0.5516 0,0.3515 -0.352,0.3515 -0.653,0.3515 -0.552,0 -1.23,0 -1.23,0.3016 0,0.075 0,0.125 0.126,0.5516 z m -3.787,-7.1766 c -0.127,-0.4265 -0.127,-0.4765 -0.452,-0.8781 -0.979,-1.1531 -2.158,-1.8312 -3.137,-1.8312 -0.928,0 -1.831,0.6531 -1.831,2.4343 0,1.3297 0.728,4.0891 1.304,5.0922 1.155,2.0078 2.435,2.3844 3.136,2.3844 1.756,0 2.233,-1.9328 2.233,-2.1828 0,-0.1266 -0.05,-0.2766 -0.075,-0.3766 l -1.178,-4.6422"
                 style="fill:#000000;fill-opacity:1;fill-rule:nonzero;stroke:none"
                 id="path2339" />
              <path
                 d="m 378.9188,57.0313 c 0,0.9671 -0.825,1.8984 -1.9,1.8984 -1.219,0 -1.936,-1.0031 -1.936,-1.8984 0,-0.9688 0.825,-1.9 1.9,-1.9 1.219,0 1.936,1.0031 1.936,1.9"
                 style="fill:#000000;fill-opacity:1;fill-rule:nonzero;stroke:none"
                 id="path2341" />
              <path
                 d="m 381.6378,50.3984 c 0,0.1438 -0.108,0.3594 -0.358,0.3594 -0.396,0 -1.828,-1.4344 -2.438,-2.4734 -0.789,1.9359 -2.187,2.5094 -3.334,2.5094 -4.23,0 -8.638,-5.3047 -8.638,-10.5032 0,-3.5125 2.114,-5.7343 4.732,-5.7343 1.54,0 2.939,0.8593 4.229,2.15 -0.323,-1.2547 -1.506,-6.0938 -1.612,-6.4157 -0.288,-1.0047 -0.575,-1.1468 -2.581,-1.1828 -0.466,0 -0.825,0 -0.825,-0.7172 0,-0.0359 0,-0.3953 0.465,-0.3953 1.147,0 2.402,0.1078 3.585,0.1078 1.218,0 2.509,-0.1078 3.692,-0.1078 0.179,0 0.645,0 0.645,0.7172 0,0.3953 -0.358,0.3953 -0.931,0.3953 -1.72,0 -1.72,0.25 -1.72,0.5735 0,0.25 0.071,0.4656 0.142,0.7875 z m -9.929,-15.0546 c -2.151,0 -2.295,2.7609 -2.295,3.3703 0,1.7203 1.041,5.6265 1.65,7.1328 1.111,2.6531 2.975,4.1578 4.444,4.1578 2.331,0 2.833,-2.9031 2.833,-3.1547 0,-0.2141 -1.972,-8.0641 -2.08,-8.2078 -0.537,-1.0031 -2.545,-3.2984 -4.552,-3.2984"
                 style="fill:#000000;fill-opacity:1;fill-rule:nonzero;stroke:none"
                 id="path2343" />
              <path
                 d="m 401.6268,43.8703 c 0,14.086 -3.227,28.2813 -12.332,38.9985 -0.717,0.825 -2.078,2.2937 -3.548,3.5843 -0.43,0.4313 -0.502,0.4313 -1.003,0.4313 -0.431,0 -0.753,0 -0.753,-0.3594 0,-0.1437 0.143,-0.2859 0.215,-0.3578 1.255,-1.2906 3.657,-3.6922 6.058,-7.5641 5.77,-9.2468 8.388,-20.8968 8.388,-34.6968 0,-9.6438 -1.291,-22.0813 -7.205,-32.7625 -2.833,-5.09067 -5.808,-8.06567 -7.313,-9.57192 -0.071,-0.10625 -0.143,-0.214067 -0.143,-0.32188 0,-0.357812 0.322,-0.357812 0.753,-0.357812 0.501,0 0.573,0 1.111,0.5375 12.008,10.932812 15.772,27.350012 15.772,42.440612"
                 style="fill:#000000;fill-opacity:1;fill-rule:nonzero;stroke:none"
                 id="path2345" />
            </g>
          </g>
        </g>
      </g>
    </g>
    <g
       id="g2426"
       inkscape:label="Untitled"
       transform="matrix(0.13822163,0,0,-0.13822163,48.077175,32.384694)">
      <g
         id="g2428" />
      <g
         id="g2430">
        <g
           id="g2432"
           transform="matrix(1e-6,0,0,1e-6,161.5,16)">
          <path
             d="m 0,0 c 60,108 97,116 101,120 4,-4 -69,-5 3,-23 -55,-2 -6,0 11,4 C 54,52 61,34 78,87 c 8,23 9,1 24,28 17,-66 -29,-3 -35,4 14,-8 10,-42 53,-16 C 66,71 53,79 88,56 c -23,5 -54,6 -23,9 0,2 4,45 40,34 C 98,86 68,76 83,103 77,120 70,77 51,52 c 63,28 34,-3 3,64 20,-38 61,-51 51,-62 10,23 16,19 8,23 4,28 -37,31 8,-25 -8,19 -56,50 -73,13 5,3 26,50 2,-17 61,42 57,24 71,34 -71,22 -53,-2 -44,-4 21,40 42,8 1,43 -26,-36 21,-20 40,-46 -8,13 -61,31 -6,29 -63,-35 -25,15 -56,-35 28,46 -2,-16 1,52 41,-70 44,-45 15,-18 -5,2 50,11 49,-50 -16,45 -33,-4 -17,46 -17,6 -50,17 4,-29 -6,18 -59,36 -9,-20 23,47 -48,66 13,61 -1,-28 -29,-25 -3,-43 -27,37 -34,15 -11,21 -42,22 -24,21 8,-16 -35,42 -40,-7 9,-1 -26,43 -44,9 -8,-16 12,30 7,45 -51,12 20,-17 31,-21 44,9 -25,27 -46,-7 0,45 -33,-47 9,-40 -21,-41 23,34 25,-24 5,22 24,8 37,-19 1,-23 29,-23 37,-32 -11,35 4,-15 47,-10 14,-45 -9,14 -45,51 27,-14 -6,52 -65,-4 1,9 C 47,82 104,50 50,84 85,114 86,116 85,97 65,56 56,83 117,121 65,86 86,75 68,117 109,112 57,54 66,69 c -18,-2 4,34 7,17 9,-11 36,-7 25,13 -10,4 14,-30 -17,-32 31,-15 -7,41 -28,20 1,18 34,-18 69,24 C 107,80 82,90 82,57 79,81 66,69 119,53 54,88 105,108 68,79 c -11,35 44,10 34,-22 -19,22 9,27 -37,47 -11,10 53,18 51,-21 -47,22 -13,-34 -49,23 53,-6 4,-24 -2,-17 48,-18 42,29 5,-42 -23,75 9,56 40,5 -57,-4 -55,23 9,70 -16,-56 -49,-6 -43,-48 5,-23 -24,31 1,-5 4,-17 45,50 25,-18 15,20 -21,34 18,18 -17,15 -39,36 -32,19 14,-32 -2,-40 -7,-21 2,37 30,3 -1,10 1,-22 -13,33 6,-24 -34,55 36,48 -7,60 23,-27 32,-56 38,-15 -32,15 -1,-9 -2,7 -9,-1 -39,-8 -33,-17 36,23 -17,-10 28,23 C 68,78 88,81 78,97 c 35,9 -12,16 -2,14 -11,-27 -26,-7 -6,-64 12,66 10,19 44,33 6,32 4,40 -34,25 29,-5 -3,-53 33,-4 -41,1 -32,-29 7,14 C 99,51 88,90 101,99 65,81 61,61 60,47 c 48,50 56,54 60,58 C 116,62 0,0 0,0 Z"
             style="fill:none;stroke:#000000;stroke-width:1;stroke-linecap:butt;stroke-linejoin:miter;stroke-miterlimit:10;stroke-dasharray:none;stroke-opacity:0"
             id="path2434" />
        </g>
      </g>
      <g
         id="g2436">
        <g
           id="g2438"
           clip-path="url(#clipPath2442)">
          <g
             id="g2444"
             transform="matrix(0.1,0,0,0.1,0.335812,0.972)">
            <path
               d="m 1615,156.801 v 0 0 0 0 0 0 0 0 0 0 0 0 0 0 0 0 0 0 0 0 0 0 0 0 0 0 0 0 0 0 0 0 0 0 0 0 0 0 0 0 0 0 0 0 0 0 0 0 0 0 0 0 0 0 0 0 0 0 0 0 0 0 0 0 0 0 0 0 0 0 0 0 0 0 0 0 0 0 0 0 0 0 0 0 0 z"
               style="fill:none;stroke:#000000;stroke-linecap:butt;stroke-linejoin:miter;stroke-miterlimit:10;stroke-dasharray:none;stroke-opacity:0"
               id="path2446" />
          </g>
        </g>
      </g>
      <g
         id="g2448">
        <g
           id="g2450"
           clip-path="url(#clipPath2454)">
          <path
             d="m 4.935812,10.06731 c -0.35937,-1.39687 -0.43125,-1.68437 -3.2625,-1.68437 -0.609375,0 -1.003125,0 -1.003125,-0.68125 C 0.670187,7.272 0.992062,7.272 1.673312,7.272 H 13.53741 c 7.4562,0 14.5172,7.5641 14.5172,15.4141 0,5.0531 -3.0469,9.0687 -8.4235,9.0687 H 7.587372 c -0.68125,0 -1.075,0 -1.075,-0.6812 0,-0.4313 0.32188,-0.4313 1.03907,-0.4313 0.46718,0 1.11093,-0.0359 1.54218,-0.0703 0.57344,-0.0719 0.7875,-0.1797 0.7875,-0.575 0,-0.1422 -0.03593,-0.25 -0.14218,-0.6797 z M 12.67801,29.2814 c 0.3219,1.2547 0.3937,1.3609 1.9359,1.3609 h 3.8344 c 3.5125,0 6.4891,-1.8984 6.4891,-6.6312 0,-1.7563 -0.7172,-7.6344 -3.7641,-11.5782 -1.0391,-1.325 -3.8719,-4.04996 -8.2812,-4.04996 H 8.842062 c -0.50156,0 -0.57344,0 -0.78906,0.03594 -0.35781,0.03593 -0.46563,0.07187 -0.46563,0.35937 0,0.10625 0,0.17813 0.17969,0.82344 L 12.67801,29.2814"
             style="fill:#000000;fill-opacity:1;fill-rule:nonzero;stroke:none"
             id="path2456" />
          <path
             d="m 39.27331,17.0517 c 0.225,0.9031 0.3,1.1531 2.6094,1.1531 0.7765,0 1.0281,0 1.0281,0.5531 0,0.025 -0.025,0.35 -0.4266,0.35 -0.5765,0 -1.2546,-0.05 -1.8562,-0.075 -0.6281,-0.025 -1.3797,-0.025 -2.0078,-0.025 -0.5266,0 -1.2047,0.025 -1.7313,0.025 -0.5265,0 -1.1281,0.075 -1.6297,0.075 -0.1515,0 -0.5281,0 -0.5281,-0.5515 0,-0.3516 0.3016,-0.3516 0.8031,-0.3516 0.025,0 0.5016,0 0.9532,-0.05 0.5281,-0.05 0.5781,-0.1 0.5781,-0.3515 0,-0.05 0,-0.175 -0.1016,-0.5516 L 33.62801,3.92825 c -0.2266,-0.85156 -0.2766,-1.05312 -2.2078,-1.05312 -0.4266,0 -0.7531,0 -0.7531,-0.52657 0,-0.37656 0.3015,-0.37656 0.7531,-0.37656 h 12.6203 c 0.6266,0 0.6516,0.025 0.8531,0.50156 0.25,0.67813 2.1328,5.54532 2.1328,5.74532 0,0.07656 -0.0515,0.35156 -0.4265,0.35156 -0.3016,0 -0.3516,-0.125 -0.5032,-0.52656 -0.9531,-2.38438 -2.0562,-5.16875 -6.6484,-5.16875 h -2.8344 c -0.7781,0 -0.8031,0.025 -0.8031,0.25156 0,0.025 0,0.15 0.1,0.52656 l 3.3625,13.39845"
             style="fill:#000000;fill-opacity:1;fill-rule:nonzero;stroke:none"
             id="path2458" />
          <path
             d="m 74.25141,16.2329 c 0,3.836 -3.1906,6.9547 -6.9547,6.9547 -3.8703,0 -6.989,-3.1906 -6.989,-6.9547 0,-3.8 3.1187,-6.95309 6.989,-6.95309 3.7641,0 6.9547,3.11879 6.9547,6.95309 z m -6.9547,-5.52027 c -3.1187,0 -5.5562,2.50937 -5.5562,5.52027 0,3.011 2.4734,5.5204 5.5562,5.5204 2.975,0 5.5204,-2.4375 5.5204,-5.5204 0,-3.0828 -2.5454,-5.52027 -5.5204,-5.52027"
             style="fill:#000000;fill-opacity:1;fill-rule:nonzero;stroke:none"
             id="path2460" />
          <path
             d="m 89.93581,10.06731 c -0.3594,-1.39687 -0.4312,-1.68437 -3.2625,-1.68437 -0.6094,0 -1.0031,0 -1.0031,-0.68125 0,-0.42969 0.3219,-0.42969 1.0031,-0.42969 h 11.8641 c 7.45639,0 14.51739,7.5641 14.51739,15.4141 0,5.0531 -3.047,9.0687 -8.424,9.0687 H 92.58741 c -0.6813,0 -1.075,0 -1.075,-0.6812 0,-0.4313 0.3218,-0.4313 1.039,-0.4313 0.4672,0 1.111,-0.0359 1.5422,-0.0703 0.5735,-0.0719 0.7875,-0.1797 0.7875,-0.575 0,-0.1422 -0.0359,-0.25 -0.1422,-0.6797 z m 7.7422,19.21409 c 0.3219,1.2547 0.3937,1.3609 1.9359,1.3609 h 3.83489 c 3.512,0 6.489,-1.8984 6.489,-6.6312 0,-1.7563 -0.718,-7.6344 -3.764,-11.5782 -1.04,-1.325 -3.872,-4.04996 -8.28169,-4.04996 h -4.05 c -0.5016,0 -0.5735,0 -0.7891,0.03594 -0.3578,0.03593 -0.4656,0.07187 -0.4656,0.35937 0,0.10625 0,0.17813 0.1797,0.82344 l 4.9109,19.67971"
             style="fill:#000000;fill-opacity:1;fill-rule:nonzero;stroke:none"
             id="path2462" />
          <path
             d="m 124.2738,17.0517 c 0.225,0.9031 0.3,1.1531 2.609,1.1531 0.776,0 1.028,0 1.028,0.5531 0,0.025 -0.025,0.35 -0.427,0.35 -0.576,0 -1.254,-0.05 -1.856,-0.075 -0.628,-0.025 -1.379,-0.025 -2.008,-0.025 -0.526,0 -1.204,0.025 -1.731,0.025 -0.526,0 -1.128,0.075 -1.63,0.075 -0.151,0 -0.528,0 -0.528,-0.5515 0,-0.3516 0.302,-0.3516 0.803,-0.3516 0.025,0 0.502,0 0.954,-0.05 0.528,-0.05 0.578,-0.1 0.578,-0.3515 0,-0.05 0,-0.175 -0.102,-0.5516 l -3.336,-13.32345 c -0.226,-0.85156 -0.276,-1.05312 -2.208,-1.05312 -0.426,0 -0.753,0 -0.753,-0.52657 0,-0.37656 0.302,-0.37656 0.753,-0.37656 h 12.621 c 0.626,0 0.651,0.025 0.853,0.50156 0.25,0.67813 2.133,5.54532 2.133,5.74532 0,0.07656 -0.052,0.35156 -0.427,0.35156 -0.301,0 -0.351,-0.125 -0.503,-0.52656 -0.953,-2.38438 -2.056,-5.16875 -6.648,-5.16875 h -2.835 c -0.778,0 -0.803,0.025 -0.803,0.25156 0,0.025 0,0.15 0.1,0.52656 l 3.363,13.39845"
             style="fill:#000000;fill-opacity:1;fill-rule:nonzero;stroke:none"
             id="path2464" />
          <path
             d="m 152.3028,7.64231 c 0.402,0 1.003,0 1.003,0.60157 0,0.62812 -0.576,0.62812 -1.003,0.62812 h -14.953 c -0.401,0 -1.005,0 -1.005,-0.60312 0,-0.62657 0.579,-0.62657 1.005,-0.62657 h 14.953"
             style="fill:#000000;fill-opacity:1;fill-rule:nonzero;stroke:none"
             id="path2466" />
          <path
             d="m 164.4408,17.9298 c 0,0.6766 -0.05,0.7016 -0.752,0.7016 -1.606,-1.5797 -3.889,-1.6047 -4.919,-1.6047 V 16.122 c 0.604,0 2.258,0 3.639,0.7031 V 4.02981 c 0,-0.82812 0,-1.15468 -2.509,-1.15468 h -0.953 V 1.972 c 0.452,0.025 3.537,0.1 4.466,0.1 0.778,0 3.939,-0.075 4.49,-0.1 v 0.90313 h -0.953 c -2.509,0 -2.509,0.32656 -2.509,1.15468 V 17.9298"
             style="fill:#000000;fill-opacity:1;fill-rule:nonzero;stroke:none"
             id="path2468" />
          <path
             d="m 196.0518,16.2329 c 0,3.836 -3.191,6.9547 -6.955,6.9547 -3.87,0 -6.989,-3.1906 -6.989,-6.9547 0,-3.8 3.119,-6.95309 6.989,-6.95309 3.764,0 6.955,3.11879 6.955,6.95309 z m -6.955,-5.52027 c -3.119,0 -5.556,2.50937 -5.556,5.52027 0,3.011 2.473,5.5204 5.556,5.5204 2.975,0 5.52,-2.4375 5.52,-5.5204 0,-3.0828 -2.545,-5.52027 -5.52,-5.52027"
             style="fill:#000000;fill-opacity:1;fill-rule:nonzero;stroke:none"
             id="path2470" />
          <path
             d="m 212.9188,16.2329 c 0,1.0391 -0.861,1.9 -1.9,1.9 -1.041,0 -1.9,-0.8609 -1.9,-1.9 0,-1.039 0.859,-1.9 1.9,-1.9 1.039,0 1.9,0.861 1.9,1.9"
             style="fill:#000000;fill-opacity:1;fill-rule:nonzero;stroke:none"
             id="path2472" />
          <path
             d="m 228.8188,16.2329 c 0,1.0391 -0.861,1.9 -1.9,1.9 -1.041,0 -1.9,-0.8609 -1.9,-1.9 0,-1.039 0.859,-1.9 1.9,-1.9 1.039,0 1.9,0.861 1.9,1.9"
             style="fill:#000000;fill-opacity:1;fill-rule:nonzero;stroke:none"
             id="path2474" />
          <path
             d="m 244.8188,16.2329 c 0,1.0391 -0.861,1.9 -1.9,1.9 -1.041,0 -1.9,-0.8609 -1.9,-1.9 0,-1.039 0.859,-1.9 1.9,-1.9 1.039,0 1.9,0.861 1.9,1.9"
             style="fill:#000000;fill-opacity:1;fill-rule:nonzero;stroke:none"
             id="path2476-5" />
          <path
             d="m 271.7518,16.2329 c 0,3.836 -3.191,6.9547 -6.955,6.9547 -3.87,0 -6.989,-3.1906 -6.989,-6.9547 0,-3.8 3.119,-6.95309 6.989,-6.95309 3.764,0 6.955,3.11879 6.955,6.95309 z m -6.955,-5.52027 c -3.119,0 -5.556,2.50937 -5.556,5.52027 0,3.011 2.473,5.5204 5.556,5.5204 2.975,0 5.52,-2.4375 5.52,-5.5204 0,-3.0828 -2.545,-5.52027 -5.52,-5.52027"
             style="fill:#000000;fill-opacity:1;fill-rule:nonzero;stroke:none"
             id="path2478" />
          <path
             d="m 287.4358,10.06731 c -0.359,-1.39687 -0.431,-1.68437 -3.262,-1.68437 -0.61,0 -1.004,0 -1.004,-0.68125 0,-0.42969 0.322,-0.42969 1.004,-0.42969 h 11.864 c 7.456,0 14.517,7.5641 14.517,15.4141 0,5.0531 -3.047,9.0687 -8.424,9.0687 h -12.043 c -0.682,0 -1.075,0 -1.075,-0.6812 0,-0.4313 0.321,-0.4313 1.039,-0.4313 0.467,0 1.111,-0.0359 1.542,-0.0703 0.573,-0.0719 0.787,-0.1797 0.787,-0.575 0,-0.1422 -0.036,-0.25 -0.142,-0.6797 z m 7.742,19.21409 c 0.322,1.2547 0.394,1.3609 1.936,1.3609 h 3.835 c 3.512,0 6.489,-1.8984 6.489,-6.6312 0,-1.7563 -0.718,-7.6344 -3.764,-11.5782 -1.04,-1.325 -3.872,-4.04996 -8.282,-4.04996 h -4.05 c -0.501,0 -0.573,0 -0.789,0.03594 -0.358,0.03593 -0.465,0.07187 -0.465,0.35937 0,0.10625 0,0.17813 0.179,0.82344 l 4.911,19.67971"
             style="fill:#000000;fill-opacity:1;fill-rule:nonzero;stroke:none"
             id="path2480" />
          <path
             d="m 319.8408,17.9298 c 0,0.6766 -0.05,0.7016 -0.752,0.7016 -1.606,-1.5797 -3.889,-1.6047 -4.919,-1.6047 V 16.122 c 0.604,0 2.258,0 3.639,0.7031 V 4.02981 c 0,-0.82812 0,-1.15468 -2.509,-1.15468 h -0.953 V 1.972 c 0.452,0.025 3.537,0.1 4.466,0.1 0.778,0 3.939,-0.075 4.49,-0.1 v 0.90313 h -0.953 c -2.509,0 -2.509,0.32656 -2.509,1.15468 V 17.9298"
             style="fill:#000000;fill-opacity:1;fill-rule:nonzero;stroke:none"
             id="path2482" />
        </g>
      </g>
    </g>
    <rect
       ry="0"
       y="20.899395"
       x="1.132874"
       height="10.716969"
       width="34.984772"
       id="rect2525"
       style="fill:#d2d2ff;fill-opacity:1;stroke:#0000ff;stroke-width:0.705556;stroke-linecap:round;stroke-opacity:0.98" />
    <g
       transform="translate(6.4255953,-6.5200893)"
       id="g2559">
      <text
         xml:space="preserve"
         style="font-size:5.64444px;line-height:1.25;font-family:sans-serif;stroke-width:0.264583"
         x="-3.08285"
         y="34.903591"
         id="text2537"><tspan
           sodipodi:role="line"
           id="tspan2535"
           style="stroke-width:0.264583"
           x="-3.08285"
           y="34.903591">S ,S ,...,S</tspan></text>
      <text
         xml:space="preserve"
         style="font-size:2.82223px;line-height:1.25;font-family:sans-serif;stroke-width:0.264583"
         x="0.98903632"
         y="35.857342"
         id="text2541"><tspan
           sodipodi:role="line"
           id="tspan2539"
           style="stroke-width:0.264583"
           x="0.98903632"
           y="35.857342">1</tspan></text>
      <text
         xml:space="preserve"
         style="font-size:2.82223px;line-height:1.25;font-family:sans-serif;stroke-width:0.264583"
         x="8.7564487"
         y="36.084126"
         id="text2545"><tspan
           sodipodi:role="line"
           id="tspan2543"
           style="stroke-width:0.264583"
           x="8.7564487"
           y="36.084126">2</tspan></text>
      <text
         xml:space="preserve"
         style="font-size:2.82223px;line-height:1.25;font-family:sans-serif;stroke-width:0.264583"
         x="24.593651"
         y="35.441563"
         id="text2549"><tspan
           sodipodi:role="line"
           id="tspan2547"
           style="stroke-width:0.264583"
           x="24.593651"
           y="35.441563">M</tspan></text>
    </g>
    <path
       sodipodi:nodetypes="cc"
       style="fill:none;stroke:#000000;stroke-width:0.705556;stroke-linecap:butt;stroke-linejoin:miter;stroke-miterlimit:4;stroke-dasharray:none;stroke-opacity:1;marker-end:url(#marker2571)"
       d="m 36.512496,26.458333 h 7.9375"
       id="path2567" />
    <text
       id="text2653"
       y="-5.8208356"
       x="-17.991671"
       style="font-size:2.82223px;line-height:1.25;font-family:sans-serif;stroke-width:0.264583"
       xml:space="preserve"><tspan
         y="-5.8208356"
         x="-17.991671"
         style="font-size:5.64444px;stroke-width:0.264583"
         id="tspan2651"
         sodipodi:role="line">S</tspan></text>
    <text
       xml:space="preserve"
       style="font-size:2.82223px;line-height:1.25;font-family:sans-serif;stroke-width:0.264583"
       x="-8.8198805"
       y="41.941174"
       id="text2798"><tspan
         sodipodi:role="line"
         id="tspan2796"
         style="font-size:5.64444px;stroke-width:0.264583"
         x="-8.8198805"
         y="41.941174">scalar invariants</tspan></text>
    <text
       id="text2834"
       y="41.941174"
       x="100.71761"
       style="font-size:2.82223px;line-height:1.25;font-family:sans-serif;stroke-width:0.264583"
       xml:space="preserve"><tspan
         y="41.941174"
         x="100.71761"
         style="font-size:5.64444px;stroke-width:0.264583"
         id="tspan2832"
         sodipodi:role="line">Lagrangian</tspan></text>
  </g>
</svg>
